<svg xmlns="http://www.w3.org/2000/svg" xmlns:xlink="http://www.w3.org/1999/xlink" width="96" height="96" viewBox="0 0 96 96">
    <defs>
        <linearGradient id="gx7xnf11sb" x1="4.771%" x2="94.458%" y1="2.544%" y2="38.599%">
            <stop offset="0%" stop-color="#B3DBF1"/>
            <stop offset="100%" stop-color="#C7EBFE"/>
        </linearGradient>
        <linearGradient id="yq8aijl2sc" x1="71.148%" x2="33.213%" y1="52.994%" y2="51.623%">
            <stop offset="0%" stop-color="#0285CE"/>
            <stop offset="100%" stop-color="#0067CE"/>
        </linearGradient>
        <path id="lf36n8821a" d="M0 0H96V96H0z"/>
    </defs>
    <g fill="none" fill-rule="evenodd">
        <g>
            <g transform="translate(-429 -23) translate(429 23)">
                <mask id="l9mok9xq0d" fill="#fff">
                    <use xlink:href="#lf36n8821a"/>
                </mask>
                <use fill="url(#gx7xnf11sb)" xlink:href="#lf36n8821a"/>
                <path fill="url(#yq8aijl2sc)" fill-opacity=".5" d="M21 73c19-1 24.5-11.5 44-13s31 2.5 31 2.5c.188.005 11.521-1.162 34-3.5v41.5H-10l-5.5-47C-3.833 67.167 8.333 73.667 21 73z" mask="url(#l9mok9xq0d)"/>
                <path fill="#0285CE" d="M0 62c8.575-2.54 14.982-3.014 20.405-2.476l.787.086c.13.015.26.031.388.048l.768.106c.253.037.505.077.755.118l.744.13.734.143.724.152.716.161.707.17.701.18.695.186.689.192 1.025.3 1.018.312 1.21.382 3.494 1.131c2.892.927 5.883 1.818 9.256 2.42l-3.7 1.748-1.307.605-.878.396-.442.196-.892.385C32.962 71.04 27.861 72.64 21 73c-7.16.377-14.16-1.536-21-5.739V62zm96-10v10.5l-.418-.134-.517-.153-.719-.198-.716-.184-.841-.201-.711-.16-1.055-.22-.869-.167-.935-.167-1.002-.165-.703-.109-.732-.105-.76-.103-.79-.099-.816-.094-.844-.09-.871-.084-.899-.078c5.067-1.34 9.42-3.58 13.75-7.57L96 52z" mask="url(#l9mok9xq0d)" opacity=".3"/>
            </g>
        </g>
    </g>
</svg>
