<svg xmlns="http://www.w3.org/2000/svg" xmlns:xlink="http://www.w3.org/1999/xlink" width="96" height="96" viewBox="0 0 96 96">
    <defs>
        <linearGradient id="5bok97rb7b" x1="4.771%" x2="94.458%" y1="2.544%" y2="38.599%">
            <stop offset="0%" stop-color="#B2F2ED"/>
            <stop offset="100%" stop-color="#BFFBF6"/>
        </linearGradient>
        <linearGradient id="sxs1zkcdsd" x1="12.652%" x2="70.462%" y1="45.865%" y2="51.56%">
            <stop offset=".074%" stop-color="#00D3C3"/>
            <stop offset="100%" stop-color="#00BBC4"/>
        </linearGradient>
        <path id="9e9ly340qa" d="M0 0H96V96H0z"/>
    </defs>
    <g fill="none" fill-rule="evenodd">
        <g>
            <g transform="translate(-120 -23) translate(120 23)">
                <mask id="3q6etvq9ic" fill="#fff">
                    <use xlink:href="#9e9ly340qa"/>
                </mask>
                <use fill="url(#5bok97rb7b)" xlink:href="#9e9ly340qa"/>
                <path fill="#00D3C3" d="M71.888 60.1l-.552.098-.663.111-.823.127-.663.092-.781.099-.337.039-.781.082-.605.055-.724.057-.65.043-.586.031-.826.034-.403.012-.66.014L62 61l-.52-.005-.52-.013-.398-.017-.603-.035-.363-.026-.444-.039-.34-.033-.386-.043-.67-.084-.691-.1-.698-.117-.625-.115-.694-.14-.755-.166-.382-.09-.382-.093c-.522-.13-1.043-.268-1.563-.414L51 59.189l-.67-.205-.733-.233-.732-.24-.741-.25-.566-.197-.725-.256-.974-.35-1.78-.658-3.02-1.128c-.61-.226-1.223-.452-1.84-.675l-1.675-.594-.228-.08C46.07 52.109 54.131 51 61.5 51c8.926 0 16.769 2.62 24.064 5.71-1.027.245-2.032.504-3.026.769l-3.448.931-.991.264-.646.17-.65.166c-.3.076-.602.151-.905.225-.389.094-.78.187-1.173.277l-.634.142-.64.138-.881.178-.682.13z" mask="url(#3q6etvq9ic)" opacity=".3"/>
                <path fill="url(#sxs1zkcdsd)" fill-opacity=".5" d="M20 51c16.5 0 28 10 42 10 14.5 0 21.205-5.436 35.5-6 6.859-.27 17.692 2.063 32.5 7v41.5H-10l-20.5-38C-7.833 55.833 9 51 20 51z" mask="url(#3q6etvq9ic)"/>
            </g>
        </g>
    </g>
</svg>
